<svg width="30" height="30" viewBox="0 0 30 30" fill="none" xmlns="http://www.w3.org/2000/svg">
<path d="M2.21185 5.16074C2.34161 3.56368 3.56367 2.34161 5.16073 2.21186C7.17837 2.04792 10.3975 1.875 15 1.875C19.6025 1.875 22.8216 2.04792 24.8393 2.21185C26.4363 2.34161 27.6584 3.56367 27.7881 5.16073C27.9521 7.17837 28.125 10.3975 28.125 15C28.125 19.6025 27.9521 22.8216 27.7881 24.8393C27.6584 26.4363 26.4363 27.6584 24.8393 27.7881C22.8216 27.9521 19.6025 28.125 15 28.125C10.3975 28.125 7.17838 27.9521 5.16074 27.7881C3.56368 27.6584 2.34161 26.4363 2.21186 24.8393C2.04792 22.8216 1.875 19.6025 1.875 15C1.875 10.3975 2.04792 7.17838 2.21185 5.16074Z" stroke="#00A7B4" stroke-width="3" stroke-linecap="round" stroke-linejoin="round"/>
<path d="M5.66636 11.2316C5.64998 11.9289 6.21323 12.5001 6.91075 12.5001H23.0882C23.7858 12.5001 24.3491 11.9289 24.3327 11.2316C24.2933 9.55669 24.2326 8.29925 24.1786 7.43113C24.1241 6.55588 23.4436 5.87541 22.5684 5.82097C21.1405 5.73216 18.6594 5.625 14.9995 5.625C11.3397 5.625 8.85856 5.73216 7.43062 5.82097C6.55537 5.87541 5.87493 6.55588 5.82049 7.43113C5.76649 8.29925 5.70571 9.55669 5.66636 11.2316Z" stroke="#00A7B4" stroke-width="3" stroke-linecap="round" stroke-linejoin="round"/>
<path d="M6.875 17.5H9.375" stroke="#00A7B4" stroke-width="3" stroke-linecap="round" stroke-linejoin="round"/>
<path d="M6.875 23.125H9.375" stroke="#00A7B4" stroke-width="3" stroke-linecap="round" stroke-linejoin="round"/>
<path d="M13.75 17.5H16.25" stroke="#00A7B4" stroke-width="3" stroke-linecap="round" stroke-linejoin="round"/>
<path d="M13.75 23.125H16.25" stroke="#00A7B4" stroke-width="3" stroke-linecap="round" stroke-linejoin="round"/>
<path d="M20.625 17.5H23.125" stroke="#00A7B4" stroke-width="3" stroke-linecap="round" stroke-linejoin="round"/>
<path d="M20.625 23.125H23.125" stroke="#00A7B4" stroke-width="3" stroke-linecap="round" stroke-linejoin="round"/>
</svg>
