<svg width="46" height="44" viewBox="0 0 46 44" fill="none" xmlns="http://www.w3.org/2000/svg">
<path d="M44.5 2C33.4543 2 24.5 10.9543 24.5 22C24.5 33.0457 33.4543 42 44.5 42" stroke="#F4B614" stroke-width="3" stroke-linecap="round" stroke-linejoin="round"/>
<path d="M44.5 10C37.8726 10 32.5 15.3726 32.5 22C32.5 28.6274 37.8726 34 44.5 34" stroke="#F4B614" stroke-width="3" stroke-linecap="round" stroke-linejoin="round"/>
<path d="M18.9452 4.35827C19.4055 7.07624 20.0492 11.8246 19.9975 16.8957C19.9708 19.5127 18.2229 21.8581 15.4746 22.4741C14.9074 22.6013 14.3019 22.7156 13.6697 22.805L15.4541 36.738C15.768 39.1891 14.2593 41.6171 11.809 41.9373C11.5057 41.9769 11.2294 42.0003 11 42.0003C10.7705 42.0003 10.4943 41.9769 10.1909 41.9373C7.7406 41.6171 6.2319 39.1891 6.54581 36.738L8.33019 22.8049C7.69809 22.7156 7.0927 22.6012 6.52556 22.4741C3.77713 21.8581 2.0291 19.5125 2.00244 16.8954C1.95079 11.8249 2.59336 7.07716 3.053 4.3591C3.28726 2.97379 4.49859 2 5.90357 2H16.0949C17.4995 2 18.7107 2.97335 18.9452 4.35827Z" stroke="#F4B614" stroke-width="3" stroke-linecap="round" stroke-linejoin="round"/>
<path d="M8.5 2L8 13" stroke="#F4B614" stroke-width="3" stroke-linecap="round" stroke-linejoin="round"/>
<path d="M13.5 2L14 13" stroke="#F4B614" stroke-width="3" stroke-linecap="round" stroke-linejoin="round"/>
</svg>
