<svg width="30" height="30" viewBox="0 0 30 30" fill="none" xmlns="http://www.w3.org/2000/svg">
<path d="M11.2072 4.82143L12.1287 2.44285C12.2841 2.04013 12.5575 1.69374 12.9131 1.44902C13.2687 1.20431 13.6899 1.0727 14.1215 1.07143H15.8787C16.3103 1.0727 16.7316 1.20431 17.0871 1.44902C17.4427 1.69374 17.7161 2.04013 17.8715 2.44285L18.793 4.82143L21.9214 6.62143L24.45 6.23571C24.8711 6.17856 25.2997 6.24786 25.6813 6.43483C26.0627 6.62179 26.3801 6.91795 26.5929 7.28571L27.45 8.78571C27.6697 9.15932 27.771 9.59074 27.7404 10.023C27.7097 10.4553 27.5488 10.8682 27.2786 11.2071L25.7143 13.2V16.8L27.3214 18.7929C27.5917 19.1318 27.7526 19.5447 27.7832 19.977C27.8139 20.4093 27.7125 20.8407 27.4929 21.2143L26.6357 22.7143C26.4229 23.082 26.1056 23.3781 25.7242 23.5652C25.3425 23.7521 24.9139 23.8215 24.4929 23.7643L21.9643 23.3786L18.8358 25.1786L17.9144 27.5571C17.759 27.9598 17.4856 28.3063 17.13 28.551C16.7744 28.7957 16.3532 28.9273 15.9215 28.9286H14.1215C13.6899 28.9273 13.2687 28.7957 12.9131 28.551C12.5575 28.3063 12.2841 27.9598 12.1287 27.5571L11.2072 25.1786L8.07868 23.3786L5.55011 23.7643C5.12908 23.8215 4.70055 23.7521 4.31899 23.5652C3.93746 23.3781 3.6201 23.082 3.40725 22.7143L2.55011 21.2143C2.33046 20.8407 2.22928 20.4093 2.25988 19.977C2.29048 19.5447 2.45145 19.1318 2.72153 18.7929L4.28582 16.8V13.2L2.67868 11.2071C2.40859 10.8682 2.24762 10.4553 2.21702 10.023C2.18642 9.59074 2.28761 9.15932 2.50725 8.78571L3.36439 7.28571C3.57724 6.91795 3.8946 6.62179 4.27613 6.43483C4.65769 6.24786 5.08622 6.17856 5.50725 6.23571L8.03582 6.62143L11.2072 4.82143ZM10.7144 15C10.7144 15.8476 10.9657 16.6762 11.4367 17.381C11.9076 18.0858 12.5769 18.6351 13.36 18.9595C14.1432 19.2838 15.0049 19.3687 15.8362 19.2034C16.6675 19.038 17.4312 18.6298 18.0306 18.0304C18.6299 17.4311 19.0381 16.6674 19.2035 15.8361C19.3688 15.0048 19.284 14.143 18.9596 13.3599C18.6352 12.5768 18.0859 11.9075 17.3811 11.4366C16.6763 10.9656 15.8477 10.7143 15.0001 10.7143C13.8635 10.7143 12.7734 11.1658 11.9697 11.9695C11.1659 12.7733 10.7144 13.8634 10.7144 15Z" stroke="#00A7B4" stroke-width="3" stroke-linecap="round" stroke-linejoin="round"/>
</svg>
