<svg width="34" height="34" viewBox="0 0 34 34" fill="none" xmlns="http://www.w3.org/2000/svg">
<path d="M3.42847 18.4292C7.61418 13.4584 11.417 10.5962 13.152 9.42042C13.7192 9.03541 14.467 9.16113 14.8978 9.69399C15.7158 10.7132 16.5042 11.7558 17.262 12.8205C17.8392 13.6291 19.057 13.6548 19.6963 12.8948C22.6506 9.38613 26.6435 5.92892 26.6435 5.92892" stroke="#00A7B4" stroke-width="3" stroke-linecap="round" stroke-linejoin="round"/>
<path d="M30.1258 7.94539C30.6001 5.63463 30.5951 3.59745 30.5551 2.63814C30.5497 2.47515 30.4827 2.32027 30.3674 2.20489C30.2522 2.0895 30.0974 2.02223 29.9344 2.0167C28.1546 1.95027 26.3732 2.09436 24.6272 2.446C24.0894 2.556 23.9115 3.21387 24.2987 3.60173L28.9701 8.27325C29.3587 8.66111 30.0158 8.48254 30.1258 7.94539Z" stroke="#00A7B4" stroke-width="3" stroke-linecap="round" stroke-linejoin="round"/>
<path d="M3.61929 31.9723C2.81357 31.9458 2.19643 31.4587 2.115 30.6572C2.05 30.0287 2 29.0951 2 27.715C2 26.335 2.05143 25.4007 2.11429 24.7728C2.19643 23.9714 2.81357 23.4842 3.61929 23.4571C4.09571 23.4414 4.73357 23.4292 5.57143 23.4292C6.40929 23.4292 7.04714 23.4414 7.52357 23.4578C8.32929 23.4842 8.94643 23.9714 9.02786 24.7728C9.09214 25.4014 9.14286 26.335 9.14286 27.715C9.14286 29.0951 9.09143 30.0294 9.02857 30.6572C8.94643 31.4587 8.32929 31.9458 7.52357 31.973C7.04643 31.9887 6.40929 32.0008 5.57143 32.0008C4.73357 32.0008 4.09571 31.9887 3.61929 31.9723Z" stroke="#00A7B4" stroke-width="3" stroke-linecap="round" stroke-linejoin="round"/>
<path d="M26.6836 31.9537C25.755 31.8965 25.11 31.2265 25.0429 30.2987C24.9515 29.0408 24.8572 26.7629 24.8572 22.7149C24.8572 18.6663 24.9515 16.3891 25.0429 15.1312C25.11 14.2034 25.755 13.5326 26.6836 13.4762C27.1336 13.4483 27.7072 13.4291 28.4286 13.4291C29.15 13.4291 29.7236 13.4483 30.1736 13.4762C31.1022 13.5333 31.7472 14.2034 31.8143 15.1312C31.9058 16.3891 32 18.667 32 22.7149C32 26.7636 31.9058 29.0408 31.8143 30.2987C31.7472 31.2265 31.1022 31.8973 30.1736 31.9537C29.7236 31.9815 29.1507 32.0008 28.4286 32.0008C27.7072 32.0008 27.1336 31.9815 26.6836 31.9537Z" stroke="#00A7B4" stroke-width="3" stroke-linecap="round" stroke-linejoin="round"/>
<path d="M15.2142 31.9665C14.3113 31.9273 13.652 31.3237 13.5763 30.4237C13.4985 29.4965 13.4285 27.9908 13.4285 25.5721C13.4285 23.1535 13.4985 21.6478 13.5763 20.7206C13.652 19.8206 14.3113 19.217 15.2135 19.1777C15.8086 19.1533 16.4042 19.1419 16.9999 19.1435C17.7442 19.1435 18.3299 19.1577 18.7856 19.1777C19.6885 19.217 20.3478 19.8206 20.4235 20.7206C20.5013 21.6478 20.5713 23.1535 20.5713 25.5721C20.5713 27.9908 20.5013 29.4965 20.4235 30.4237C20.3478 31.3237 19.6885 31.9273 18.7863 31.9665C18.3299 31.9865 17.7442 32.0008 16.9999 32.0008C16.4045 32.0024 15.8091 31.9909 15.2142 31.9665Z" stroke="#00A7B4" stroke-width="3" stroke-linecap="round" stroke-linejoin="round"/>
</svg>
