<svg width="24" height="30" viewBox="0 0 24 30" fill="none" xmlns="http://www.w3.org/2000/svg">
<path d="M20.75 10.625C20.75 15.4575 16.8325 19.375 12 19.375C7.1675 19.375 3.25 15.4575 3.25 10.625C3.25 5.7925 7.1675 1.875 12 1.875C16.8325 1.875 20.75 5.7925 20.75 10.625Z" stroke="#00A7B4" stroke-width="3" stroke-linecap="round" stroke-linejoin="round"/>
<path d="M8.46992 18.6337C5.28617 19.5831 2.79679 21.7812 1.82179 24.5337C1.29304 26.0275 2.38867 27.4319 3.95742 27.655C5.64304 27.8937 8.24117 28.125 11.9999 28.125C15.7587 28.125 18.3562 27.8937 20.0424 27.655C21.6112 27.4319 22.7074 26.0275 22.178 24.5337C21.203 21.7812 18.7137 19.5831 15.5299 18.6337" stroke="#00A7B4" stroke-width="3" stroke-linecap="round" stroke-linejoin="round"/>
<path d="M20.75 10.625C15.9175 10.625 12 6.7075 12 1.875C12 6.7075 8.0825 10.625 3.25 10.625" stroke="#00A7B4" stroke-width="3" stroke-linecap="round" stroke-linejoin="round"/>
<path d="M14.5 14.6875C13.4062 16.3544 10.5938 16.3544 9.5 14.6875" stroke="#00A7B4" stroke-width="3" stroke-linecap="round" stroke-linejoin="round"/>
<path d="M8.875 11.25V11.5625" stroke="#00A7B4" stroke-width="3" stroke-linecap="round" stroke-linejoin="round"/>
<path d="M15.1255 11.25V11.5625" stroke="#00A7B4" stroke-width="3" stroke-linecap="round" stroke-linejoin="round"/>
</svg>
